<?xml version="1.0" standalone="no"?>
<!DOCTYPE svg PUBLIC "-//W3C//DTD SVG 20010904//EN"
 "http://www.w3.org/TR/2001/REC-SVG-20010904/DTD/svg10.dtd">
<svg version="1.0" xmlns="http://www.w3.org/2000/svg"
 width="871.000000pt" height="871.000000pt" viewBox="0 0 871.000000 871.000000"
 preserveAspectRatio="xMidYMid meet">
<metadata>
Created by potrace 1.14, written by Peter Selinger 2001-2017
</metadata>
<g transform="translate(0.000000,871.000000) scale(0.100000,-0.100000)"
fill="#000000" stroke="none">
<path d="M0 4355 l0 -4355 4355 0 4355 0 0 4355 0 4355 -4355 0 -4355 0 0
-4355z m5042 1160 c-40 -19 -72 -37 -72 -40 0 -3 5 -3 12 1 7 4 8 3 4 -4 -4
-6 -13 -9 -20 -6 -8 3 -17 0 -22 -7 -5 -8 -3 -10 6 -4 7 4 -14 -19 -46 -52
-33 -33 -75 -89 -94 -124 -29 -55 -34 -74 -34 -136 -1 -101 -13 -99 -30 6 -8
46 65 199 125 261 24 25 57 61 72 79 28 34 87 59 142 60 24 1 16 -5 -43 -34z
m-1252 -102 c17 -14 36 -38 42 -52 13 -31 19 -151 9 -151 -5 0 -7 -21 -6 -47
2 -57 -20 -182 -35 -197 -13 -13 -13 -46 1 -46 5 0 7 -5 3 -12 -4 -7 -8 -36
-9 -65 -2 -40 2 -56 16 -69 16 -14 21 -15 35 -3 14 12 16 11 13 -6 -5 -26 -45
-32 -69 -10 -17 15 -19 15 -29 -2 -6 -10 -11 -13 -11 -7 0 5 5 15 12 22 7 7
13 50 14 104 2 51 7 123 13 160 5 37 6 80 2 95 l-8 28 -6 -30 c-3 -16 -9 -52
-13 -80 -5 -27 -9 -54 -10 -60 -1 -5 -2 -16 -3 -24 0 -8 -3 -12 -6 -9 -3 2 1
65 9 139 14 138 10 226 -13 253 -8 9 -27 16 -43 16 -52 0 -203 -160 -324 -344
-136 -205 -176 -273 -178 -304 -2 -40 -89 -162 -114 -162 -25 0 -47 16 -33 24
6 4 11 18 11 31 0 13 4 26 10 30 5 3 7 12 3 20 -3 8 0 15 7 15 18 0 37 23 34
42 -1 9 4 19 12 22 19 7 18 -7 -6 -51 -21 -40 -27 -93 -10 -93 6 0 10 10 10
22 0 12 12 41 26 66 15 25 21 42 15 38 -7 -5 -9 -1 -5 8 3 9 11 13 17 9 6 -3
7 -1 3 5 -4 6 16 48 44 92 27 45 53 92 56 106 3 13 10 22 15 19 10 -7 31 30
22 39 -3 3 1 6 10 6 9 0 23 13 32 29 8 16 25 38 37 48 13 10 32 31 42 47 15
24 16 28 3 23 -12 -4 -14 -2 -10 11 6 15 5 16 -12 2 -36 -29 29 54 90 115 45
44 113 123 89 103 -11 -10 -26 -18 -32 -18 -6 0 -15 -6 -19 -12 -4 -7 -18 -22
-31 -32 -19 -17 -22 -17 -16 -3 8 21 96 87 116 87 8 0 25 9 38 20 35 30 100
27 140 -7z m-1423 -55 c5 -7 13 -21 16 -30 6 -16 4 -16 -16 -5 -12 6 -29 17
-37 23 -19 14 -62 25 -55 14 2 -4 -14 -10 -36 -13 -42 -6 -115 -49 -177 -107
-27 -25 -31 -32 -20 -44 7 -8 17 -12 21 -9 5 3 -3 -12 -17 -33 -35 -52 -42
-71 -49 -124 -6 -40 -12 -63 -33 -122 -4 -10 -9 -18 -13 -18 -4 0 -6 -12 -6
-27 1 -16 -5 -48 -11 -72 -8 -28 -10 -50 -4 -61 5 -10 6 -21 2 -25 -4 -4 11
-5 33 -2 37 6 38 5 21 -8 -54 -41 -73 -5 -75 144 -1 29 -3 32 -16 21 -8 -7
-15 -29 -16 -49 0 -20 -3 -30 -6 -22 -10 26 20 166 49 223 15 32 28 63 28 70
0 7 16 37 35 65 19 29 35 55 35 59 0 4 16 26 35 49 51 63 126 107 204 120 66
12 88 8 108 -17z m891 -87 c-3 -18 0 -28 6 -24 5 4 7 0 3 -9 -3 -9 -11 -34
-18 -57 -7 -23 -16 -41 -21 -41 -16 0 -8 -19 11 -25 17 -5 18 -10 9 -36 -11
-32 -3 -53 12 -29 5 8 12 12 15 8 3 -3 -1 -12 -9 -21 -8 -8 -12 -17 -9 -20 3
-4 -2 -18 -11 -31 -9 -14 -16 -34 -16 -45 0 -11 -4 -22 -9 -25 -5 -3 -14 -27
-20 -52 -8 -32 -15 -44 -22 -37 -7 7 -6 27 5 63 9 29 13 56 10 61 -10 16 -24
9 -24 -12 0 -11 -4 -18 -8 -15 -11 7 1 77 23 136 9 25 19 58 22 73 2 16 10 46
18 66 8 23 10 44 5 52 -6 8 -3 20 7 31 22 25 26 23 21 -11z m192 -32 c-7 -11
-14 -18 -17 -15 -3 3 0 12 7 21 18 21 23 19 10 -6z m-1034 -7 c23 -15 23 -42
0 -67 -19 -20 -43 -76 -52 -121 -1 -5 -11 -30 -23 -54 -27 -57 -28 -80 0 -75
14 3 19 0 16 -9 -17 -44 -18 -106 -2 -154 10 -28 15 -58 12 -66 -3 -8 7 -21
29 -32 35 -19 48 -41 17 -29 -10 3 -31 9 -47 12 -26 5 -27 4 -17 -14 5 -11 25
-23 42 -27 18 -3 30 -9 27 -12 -13 -12 -62 11 -94 44 -33 34 -34 37 -34 116 0
45 7 115 15 156 19 100 22 112 30 133 4 9 3 17 -3 17 -5 0 -15 -13 -22 -30 -7
-16 -17 -30 -23 -30 -6 0 -20 -8 -31 -17 -21 -18 -21 -18 -5 2 28 34 109 183
109 200 0 17 29 65 39 65 3 0 11 -4 17 -8z m1832 -141 c14 -18 16 -51 2 -51
-5 0 -9 3 -8 8 1 4 -3 17 -10 30 -11 20 -19 22 -58 17 -25 -3 -56 -10 -67 -17
-22 -11 -22 -11 -3 11 38 42 110 43 144 2z m-2218 -35 c0 -3 -4 -8 -10 -11 -5
-3 -10 -1 -10 4 0 6 5 11 10 11 6 0 10 -2 10 -4z m2878 -78 c31 -34 69 -75 85
-91 15 -17 27 -34 27 -38 0 -5 5 -9 11 -9 5 0 7 5 3 12 -5 8 -2 9 9 5 10 -4
65 10 123 29 87 29 120 35 178 34 39 -1 79 -2 88 -1 23 0 29 -11 18 -29 -7
-11 -27 -14 -77 -13 -60 2 -239 -25 -286 -43 -19 -7 -25 -70 -7 -76 11 -3 30
-94 30 -141 0 -37 -44 -133 -65 -141 -8 -3 -15 -11 -15 -17 0 -17 -131 -139
-150 -139 -9 0 -21 -5 -26 -10 -6 -6 -21 -12 -34 -15 -12 -2 -30 -10 -39 -17
-32 -26 -90 -50 -101 -43 -16 10 25 34 58 35 12 0 22 4 22 8 0 5 27 23 60 40
64 32 109 70 137 112 15 23 15 24 0 11 -9 -7 -17 -10 -17 -6 0 4 -21 -12 -46
-34 -26 -23 -53 -41 -60 -41 -8 0 -14 -4 -14 -10 0 -5 -7 -10 -16 -10 -9 0 10
19 42 43 87 64 151 140 169 199 23 79 -2 218 -40 218 -7 0 -17 -4 -20 -10 -10
-17 -35 -12 -28 6 3 9 8 11 12 6 4 -7 12 -6 23 2 16 12 16 15 -5 42 -12 16
-55 62 -94 103 -40 41 -71 77 -68 79 2 3 12 -1 22 -9 9 -8 14 -9 10 -2 -6 9 1
16 21 22 1 1 28 -27 60 -61z m-1913 22 c5 -15 -8 -35 -54 -82 -33 -35 -68 -72
-77 -83 -8 -11 -13 -14 -9 -7 7 14 -11 17 -20 2 -3 -5 -10 -10 -15 -10 -4 0 6
15 23 33 16 17 42 50 56 72 31 48 72 95 82 95 4 0 10 -9 14 -20z m1085 7 c0
-2 -10 -12 -21 -23 -22 -19 -22 -19 -8 4 12 19 29 30 29 19z m188 -49 c5 -140
41 -260 81 -273 39 -12 114 4 138 30 13 13 23 30 23 38 0 19 10 27 26 20 17
-6 18 -64 2 -85 -36 -43 -176 -63 -224 -32 -38 25 -53 63 -64 162 -5 50 -13
98 -17 108 -5 13 -3 16 10 11 15 -6 16 -1 11 33 -4 22 -2 40 3 40 5 0 10 -24
11 -52z m663 35 c13 -16 12 -17 -3 -4 -17 13 -22 21 -14 21 2 0 10 -8 17 -17z
m-691 -9 c0 -8 -5 -12 -10 -9 -6 4 -8 11 -5 16 9 14 15 11 15 -7z m-2041 -84
c-13 -16 -29 -30 -36 -30 -9 0 -1 16 19 41 37 46 52 37 17 -11z m2796 40 c3
-5 1 -10 -4 -10 -6 0 -11 5 -11 10 0 6 2 10 4 10 3 0 8 -4 11 -10z m-1248 -32
c-3 -8 -6 -5 -6 6 -1 11 2 17 5 13 3 -3 4 -12 1 -19z m1284 -20 c8 -15 8 -18
0 -14 -6 4 -16 16 -22 28 -8 15 -8 18 0 14 6 -4 16 -16 22 -28z m-1861 8 c0
-3 -4 -8 -10 -11 -5 -3 -10 -1 -10 4 0 6 5 11 10 11 6 0 10 -2 10 -4z m577
-88 c-2 -13 -4 -3 -4 22 0 25 2 35 4 23 2 -13 2 -33 0 -45z m-1380 -10 c-3 -8
-6 -5 -6 6 -1 11 2 17 5 13 3 -3 4 -12 1 -19z m1526 7 c-3 -9 -8 -14 -10 -11
-3 3 -2 9 2 15 9 16 15 13 8 -4z m-1119 -27 c-11 -13 -28 -24 -39 -25 -16 -1
-13 4 14 28 40 33 52 31 25 -3z m2096 -18 c-13 -11 -27 -20 -31 -20 -4 0 -20
-11 -36 -24 -25 -21 -93 -45 -93 -33 0 9 80 57 95 57 8 0 15 4 15 9 0 5 12 14
28 19 42 16 47 14 22 -8z m-974 -18 c-18 -16 -18 -16 -6 6 6 13 14 21 18 18 3
-4 -2 -14 -12 -24z m-63 -24 c9 0 17 -3 17 -9 0 -14 -32 -10 -60 7 l-25 15 25
-7 c14 -4 33 -7 43 -6z m-1925 -43 c-3 -3 -9 2 -12 12 -6 14 -5 15 5 6 7 -7
10 -15 7 -18z m79 -21 c-3 -3 -12 -4 -19 -1 -8 3 -5 6 6 6 11 1 17 -2 13 -5z
m583 -3 c0 -9 -68 -31 -94 -31 -9 0 -16 5 -16 11 0 6 6 9 14 6 8 -3 21 0 30 6
18 13 66 19 66 8z m2080 -27 c0 -8 -19 -13 -24 -6 -3 5 1 9 9 9 8 0 15 -2 15
-3z m0 -28 c0 -2 -8 -10 -17 -17 -16 -13 -17 -12 -4 4 13 16 21 21 21 13z
m-180 -291 c0 -39 33 -57 117 -64 l78 -6 -45 -12 c-74 -20 -126 -1 -159 57
-26 46 -29 79 -6 60 8 -7 15 -22 15 -35z m65 -33 c-6 -6 -35 18 -35 29 0 5 9
1 20 -8 11 -9 17 -19 15 -21z m160 8 c-11 -5 -29 -8 -40 -8 -16 0 -15 2 5 8
34 11 60 11 35 0z m2364 -680 c92 -12 221 -50 293 -86 26 -13 50 -24 53 -24 3
0 3 23 -1 50 l-7 50 97 0 96 0 0 -284 0 -283 -77 -6 c-43 -3 -79 -5 -80 -3 -2
1 -12 37 -22 78 -52 201 -154 302 -333 330 -254 39 -458 -127 -539 -437 -20
-77 -24 -114 -24 -260 0 -182 11 -250 60 -383 51 -136 153 -251 267 -302 197
-87 473 -14 666 177 l84 83 36 -29 c21 -16 47 -40 59 -53 l22 -24 -62 -74
c-181 -216 -404 -317 -692 -313 -157 2 -250 23 -380 87 -401 198 -564 712
-376 1185 43 107 103 195 195 287 154 153 301 220 521 238 22 1 45 3 50 4 6 1
48 -3 94 -8z m-2666 -58 c121 -33 200 -77 261 -143 68 -73 91 -135 91 -244 0
-71 -4 -89 -33 -147 -49 -100 -144 -175 -275 -218 -21 -6 -37 -14 -34 -16 2
-2 39 -13 82 -24 101 -26 167 -57 233 -109 126 -101 177 -252 141 -423 -42
-200 -216 -336 -469 -367 -48 -6 -273 -11 -517 -11 l-433 0 0 79 c0 85 4 90
67 91 32 0 81 47 93 88 6 23 11 283 12 662 l3 626 -87 -4 -88 -4 0 97 0 96
438 -3 c411 -4 442 -6 515 -26z m1592 -57 l0 -80 -46 -6 c-56 -8 -81 -23 -105
-63 -18 -29 -19 -67 -25 -551 -5 -490 -7 -524 -27 -598 -42 -154 -87 -228
-175 -294 -99 -72 -248 -105 -382 -83 -172 27 -276 124 -276 254 0 120 73 206
176 206 112 0 186 -99 156 -210 -11 -42 -11 -46 10 -62 50 -41 130 -9 149 60
6 23 11 288 12 680 l3 642 -87 0 -88 0 0 95 0 95 353 -2 352 -3 0 -80z m-4204
-415 c200 -513 309 -803 309 -825 0 -8 4 -16 9 -19 5 -3 23 36 41 87 17 50
129 352 248 670 l215 577 284 0 283 0 0 -74 0 -75 -57 -11 c-72 -15 -109 -52
-119 -115 -3 -25 3 -289 15 -589 12 -299 19 -574 15 -611 l-7 -68 91 7 92 8 0
-91 0 -91 -335 0 -335 0 0 74 0 74 50 7 c33 4 57 15 74 32 46 45 50 77 42 343
-9 318 -32 779 -38 786 -3 3 -119 -299 -258 -671 l-252 -675 -113 0 -113 0
-82 207 c-45 114 -94 234 -109 267 -26 58 -48 111 -139 341 -58 145 -96 262
-136 414 -19 73 -37 135 -38 136 -2 2 -3 -259 -3 -581 l0 -583 88 6 87 6 0
-97 0 -96 -102 0 c-57 0 -181 3 -275 7 l-173 6 0 72 0 73 47 7 c56 8 97 45
112 101 6 23 15 297 21 653 6 338 13 618 17 624 4 6 -29 7 -91 2 l-96 -7 0 91
0 91 271 -2 271 -3 189 -485z"/>
<path d="M4044 3391 c-12 -5 -32 -24 -45 -43 -24 -32 -24 -38 -27 -287 l-3
-254 103 5 c65 3 118 11 143 22 103 44 157 148 157 306 0 118 -38 186 -127
232 -44 23 -165 34 -201 19z"/>
<path d="M3970 2403 c0 -132 -3 -275 -7 -318 l-6 -77 144 7 c172 8 230 22 286
70 127 108 136 370 17 477 -11 9 -46 30 -79 45 -55 25 -72 28 -207 31 l-148 4
0 -239z"/>
</g>
</svg>
